# Blender v2.74 (sub 0) OBJ File: 'minecraft.blend'
# www.blender.org
mtllib minecraft.mtl
o Cube.003
v -1.842489 -4.661951 -2.406323
v -1.842489 -4.661951 -0.406323
v -3.842489 -4.661951 -0.406323
v -3.842489 -4.661951 -2.406323
v -1.842489 -2.661951 -2.406322
v -1.842490 -2.661951 -0.406322
v -3.842490 -2.661951 -0.406323
v -3.842489 -2.661951 -2.406323
vt 0.306004 0.338299
vt 0.507599 0.338299
vt 0.507599 0.579662
vt 0.306004 0.579662
vt 0.299576 0.343223
vt 0.505727 0.343223
vt 0.505727 0.581899
vt 0.299576 0.581899
vt 0.504412 0.571064
vt 0.501475 0.342875
vt 0.729664 0.339937
vt 0.732602 0.568127
vt 0.504802 0.571443
vt 0.501096 0.343265
vt 0.729274 0.339559
vt 0.732981 0.567737
vt 0.503533 0.570201
vt 0.502338 0.341995
vt 0.730544 0.340801
vt 0.731738 0.569006
vt 0.728540 0.338852
vt 0.733687 0.567002
vt 0.505537 0.572150
vt 0.500389 0.343999
vn 0.000000 -1.000000 0.000000
vn 0.000000 1.000000 -0.000000
vn 1.000000 0.000000 0.000000
vn -0.000000 -0.000000 1.000000
vn -1.000000 -0.000000 -0.000000
vn 0.000000 0.000000 -1.000000
usemtl Material.004
s off
f 1/1/1 2/2/1 3/3/1 4/4/1
f 5/5/2 8/6/2 7/7/2 6/8/2
f 1/9/3 5/10/3 6/11/3 2/12/3
f 2/13/4 6/14/4 7/15/4 3/16/4
f 3/17/5 7/18/5 8/19/5 4/20/5
f 5/21/6 1/22/6 4/23/6 8/24/6
